<svg width="30" height="30" viewBox="0 0 30 30" fill="none" xmlns="http://www.w3.org/2000/svg">
<g clip-path="url(#clip0_1205_4625)">
<path d="M29.404 7.72969C29.2344 7.09145 28.9001 6.50896 28.4346 6.04051C27.9692 5.57205 27.3888 5.23406 26.7517 5.06037C24.4062 4.42969 15.0312 4.42969 15.0312 4.42969C15.0312 4.42969 5.65625 4.42969 3.3108 5.06037C2.67366 5.23406 2.09332 5.57205 1.62786 6.04051C1.1624 6.50896 0.828132 7.09145 0.658523 7.72969C0.0312501 10.0854 0.03125 14.9979 0.03125 14.9979C0.03125 14.9979 0.0312501 19.9104 0.658523 22.2661C0.828132 22.9043 1.1624 23.4868 1.62786 23.9552C2.09332 24.4237 2.67366 24.7617 3.3108 24.9354C5.65625 25.566 15.0312 25.566 15.0312 25.566C15.0312 25.566 24.4062 25.566 26.7517 24.9354C27.3888 24.7617 27.9692 24.4237 28.4346 23.9552C28.9001 23.4868 29.2344 22.9043 29.404 22.2661C30.0313 19.9104 30.0312 14.9979 30.0312 14.9979C30.0312 14.9979 30.0313 10.0854 29.404 7.72969Z" fill="#FF0302"/>
<path d="M11.9609 19.4607V10.5391L19.8018 14.9999L11.9609 19.4607Z" fill="#FEFEFE"/>
</g>
<defs>
<clipPath id="clip0_1205_4625">
<rect width="30" height="30" fill="white"/>
</clipPath>
</defs>
</svg>
