<svg version="1.2" xmlns="http://www.w3.org/2000/svg" viewBox="0 0 120 53" width="120" height="53"><style>.a{fill:#ef4237}.b{fill:#4f7267}.c{fill:#231f20}.d{fill:none}.e{fill:#fbb042}.f{fill:#f7941d}</style><path class="a" d="m88.3 39.5c0.2 0.2 0.4 0.4 0.6 0.6 0.2 0.2 0.3 0.5 0.3 0.8 0 0.2-0.1 0.4-0.3 0.5-0.1 0.1-0.4 0.1-0.6 0.1-0.3-0.2-0.5-0.5-0.5-0.9 0-0.3 0.2-0.6 0.5-1.1z"/><path class="a" d="m69.7 39.3c0.2 0.2 0.4 0.3 0.6 0.6 0.2 0.2 0.3 0.5 0.3 0.8 0 0.2-0.1 0.4-0.3 0.5-0.1 0.1-0.4 0.1-0.6 0-0.3-0.1-0.4-0.5-0.4-0.8 0-0.3 0.1-0.7 0.4-1.1z"/><path class="a" d="m63.5 39.4c0.2 0.2 0.4 0.4 0.6 0.6 0.2 0.2 0.3 0.5 0.3 0.8 0 0.2-0.1 0.4-0.3 0.5-0.1 0.1-0.4 0.1-0.6 0-0.3-0.1-0.4-0.4-0.4-0.8 0-0.3 0.1-0.6 0.4-1.1z"/><path class="a" d="m116.2 39.5c0.2 0.2 0.5 0.4 0.6 0.6 0.2 0.2 0.3 0.5 0.3 0.8 0 0.2-0.1 0.4-0.2 0.5-0.2 0.1-0.5 0.1-0.6 0.1-0.3-0.2-0.5-0.5-0.5-0.9 0-0.3 0.1-0.6 0.4-1.1z"/><path class="a" d="m94.9 39.5c0.2 0.2 0.4 0.4 0.6 0.6 0.2 0.2 0.3 0.5 0.3 0.8 0 0.2-0.1 0.4-0.3 0.5-0.1 0.1-0.4 0.1-0.6 0.1-0.3-0.2-0.4-0.5-0.4-0.9 0-0.3 0.1-0.6 0.4-1.1z"/><path class="a" d="m12 48.8c0.3 0.1 0.6 0.1 0.9 0.2 0.2 0.1 0.5 0.3 0.6 0.6 0.1 0.2 0.1 0.4 0.1 0.5-0.1 0.2-0.3 0.4-0.5 0.4-0.4 0-0.7-0.2-0.9-0.5-0.1-0.3-0.2-0.6-0.2-1.2z"/><path class="b" d="m46 41.7c0 0.1 1.2 1.4 3.1 2.5 0 0 2.3 1.3 5.8 1.5q0.2 0 0.3 0 1.3 0.1 2.7 0 0.2 0 0.4 0 1.4-0.2 3-0.6 0.1-0.1 0.2-0.1 0.2-0.1 0.4-0.1c0.5-0.2 1.1-0.4 1.1-0.4q0.3-0.1 0.5-0.2 0.1 0 0.2-0.1 0.2-0.1 0.4-0.1c0.5-0.3 0.3-0.3 1.2-0.9 0.2-0.1 0.5-0.3 0.4-0.4 0 0-0.1-0.1-0.1-0.1-0.1 0-0.2 0.1-0.2 0.1-0.2 0.2-0.5 0.3-0.8 0.4-0.2 0.2-0.4 0.3-0.9 0.5 0 0-0.3 0.2-0.7 0.3-1.7 0.6-3.1 1-3.1 1-1.2 0.2-2.1 0.3-2.4 0.3-2.3 0.2-4.1-0.1-4.5-0.2-1.6-0.3-2.9-0.8-3.4-1.1-2.2-1-3.5-2.2-3.6-2.2z"/><path class="b" d="m54.9 45.7q0.2 0 0.3 0 0.2 0 0.3 0 0.2 0 0.2-0.1 0-0.1-0.2 0-0.3 0-0.6 0.1z"/><path class="b" d="m57.9 45.7q0.2 0 0.4 0 0 0 0 0c0.2-0.1 0.2-0.2-0.1-0.2q-0.1 0.1-0.3 0.2z"/><path class="b" d="m61.5 45q0-0.1 0.1-0.2c0.1-0.2 0.1-0.3 0.1-0.3q-0.1 0-0.2 0.2-0.1 0.2-0.2 0.4 0.1 0 0.2-0.1z"/><path class="b" d="m63.5 44.3q0.1-0.1 0.2-0.1 0.1 0 0.1-0.1 0.2-0.1 0.2-0.2c-0.1 0-0.2 0-0.3 0.1q-0.1 0.1-0.2 0.3z"/><path class="b" d="m46.2 41.8c0 0.1 1.1 1.5 3 2.7 0 0 2.2 1.3 5.7 1.8q0.1 0 0.3 0 1.2 0.2 2.7 0.1 0.1 0 0.3 0 1.5 0 3.1-0.4 0 0 0.1-0.1 0.3 0 0.5-0.1c0.5-0.1 1.1-0.3 1.1-0.3q0.3-0.1 0.5-0.2 0.1 0 0.2-0.1 0.2 0 0.4-0.1c0.5-0.3 0.3-0.3 1.3-0.8 0.2-0.1 0.5-0.3 0.4-0.4 0 0 0 0-0.1-0.1q-0.1 0.1-0.2 0.1c-0.2 0.2-0.5 0.2-0.8 0.4-0.2 0.1-0.5 0.2-0.9 0.4-0.1 0-0.4 0.1-0.7 0.3-1.7 0.5-3.2 0.8-3.2 0.8-1.2 0.2-2.2 0.2-2.4 0.2-2.4 0.1-4.1-0.4-4.5-0.5-1.6-0.4-2.8-0.9-3.3-1.2-2.1-1.1-3.4-2.5-3.5-2.5z"/><path class="b" d="m54.9 46.3q0.1 0 0.3 0 0.1 0 0.3 0 0.2 0 0.2-0.1 0 0-0.2 0-0.3 0-0.6 0.1z"/><path class="b" d="m57.9 46.4q0.1 0 0.3 0 0 0 0 0c0.3 0 0.2-0.2 0-0.1q-0.2 0.1-0.3 0.2z"/><path class="b" d="m61.4 45.9q0.1-0.1 0.2-0.2 0.2-0.3 0.1-0.3 0 0-0.2 0.2-0.1 0.2-0.2 0.4 0.1 0 0.1-0.1z"/><path class="b" d="m63.5 45.3q0.1 0 0.2-0.1 0.1 0 0.1 0 0.2-0.2 0.2-0.2c0-0.1-0.1-0.1-0.2 0q-0.2 0.2-0.3 0.3z"/><path class="a" d="m65.3 43q0.1-0.3 0.3-0.5c0.1-0.2 0.3-0.3 0.5-0.4q0.2 0 0.4 0.1c0.1 0.1 0.2 0.2 0.1 0.4 0 0.2-0.2 0.4-0.4 0.5-0.3 0.1-0.5 0-0.9-0.1z"/><path class="a" d="m65.5 44.1q0-0.2 0.2-0.4c0-0.1 0.1-0.2 0.3-0.2q0.1-0.1 0.2 0c0.1 0.1 0.2 0.2 0.1 0.3 0 0.1-0.1 0.3-0.3 0.3q-0.2 0.1-0.5 0z"/><path class="c" d=""/><path class="c" d=""/><path class="c" d=""/><path class="c" d="m64.4 41.5c0 0-0.1 0-0.4 0.1-0.2 0-0.2 0-0.3 0q-0.1 0-0.3 0-0.2-0.1-0.4-0.3-0.1-0.1-0.1-0.1 0-0.1 0-0.1-0.1-0.1-0.1-0.1-0.1-0.1-0.1-0.2 0.1 0 0-0.1 0-0.1 0-0.1 0-0.1 0-0.2 0-0.2 0-0.3 0.1-0.1 0.1-0.2 0.1 0 0.1-0.1 0.1-0.1 0.1-0.2 0.1-0.2 0.1-0.2v-15.1h0.9v-4.4h-15.3q0.1 0 0.4 0.4 0.3 0.3 0.7 0.7 0.3 0.4 0.6 0.7 0.3 0.4 0.4 0.5 0.1 0.2 0.4 0.5 0.3 0.3 0.6 0.7 0.3 0.3 0.7 0.6 0.3 0.3 0.5 0.3h5.8v4.3q-0.3 0.9-0.9 1.7-0.5 0.7-1.6 1-0.4 0.2-0.9 0.2-0.5 0-1-0.1-0.7-0.7-1.3-1.3-0.7-0.6-1.3-1.2 0 0 0 0 0 0 0 0 0.7-0.9 0.7-1.8 0-0.8-0.4-1.7-0.3-0.8-1-1.6-0.6-0.8-1.3-1.3-0.8-0.9-1.5-1.6-0.8-0.7-1.6-1.3-0.8-0.5-1.8-0.8-0.9-0.2-2.1 0-0.8 0.1-1.6 0.6-0.7 0.5-1.3 1-0.2 0.2-0.5 0.4-0.3 0.3-0.6 0.6-0.3 0.2-0.6 0.4-0.4 0.2-0.6 0.1 0.1 0 0.4 0.3 0.3 0.4 0.6 0.7 0.3 0.4 0.6 0.8 0.3 0.3 0.4 0.5 0.2 0.1 0.5 0.5 0.3 0.3 0.6 0.6 0.3 0.3 0.6 0.6 0.3 0.3 0.6 0.3 0.4 0.1 0.9-0.2 0.4-0.3 0.9-0.7 0.5-0.4 0.9-0.8 0.5-0.4 0.8-0.6 1-0.7 2.2-0.9 0.1-0.1 0.5-0.1-0.2 1.4-1.3 2.4-1.2 1-2.7 1.7-0.9 0.3-1.7 0.7-0.2 0.1-0.5 0.1-0.2 0.1-0.4 0.2 0.1 0 0.4 0.3 0.3 0.3 0.6 0.7 0.4 0.4 0.7 0.8 0.3 0.4 0.4 0.4c0 0.1 0.2 0.2 0.4 0.4q0.3 0.4 0.7 0.8 0.3 0.3 0.7 0.6 0.3 0.3 0.5 0.2 0 0 0 0 0.1 0.1 0.3 0 0.1 0 0.2-0.1 0.1 0 0.2-0.1 0.6-0.2 1.1-0.4 0.5-0.2 1-0.4 0.6-0.2 1.3-0.3 0.6-0.1 1.3-0.1 0.3 0 0.5 0 0.2 0 0.4 0 0.1 1 0.1 2-0.1 0.8-0.5 1.5-0.4 0.7-0.9 1.3-0.5 0.6-1.2 1.1-0.6 0.5-1.3 0.8-1 0.5-2 0.7-1 0.1-2-0.1-1-0.1-2-0.5-1-0.4-1.9-1-1.8-1-3.4-2.3-1.6-1.3-3.2-2.7-1.5-1.4-3-2.9-1.5-1.4-3.1-2.7-2.9-2.5-6.2-4.1-3.2-1.6-7.1-2.3-1.8-0.3-3.7-0.2-1.9 0.1-3.6 0.7-1.7 0.7-3 1.9-1.4 1.2-2.2 3-0.8 1.6-0.8 3.4 0 1.8 0.4 3.7 0.4 1.8 1.1 3.6c0 0 0.6 1.6 1.4 3.2 2.5 4.7 5.9 8.1 7.9 10-1-1.2-1.8-2.7-2.7-4.2-0.6-1-1.2-2.2-1.4-2.5-0.4-1-0.9-2-1.4-3.4q-0.6-1.9-0.8-3.8-0.2-2 0.1-3.8 0.3-1.9 1.3-3.4 1.1-1.8 2.8-2.7 1.6-0.9 3.4-1.2 1.9-0.3 3.8-0.1 2 0.1 3.8 0.5 2.3 0.6 4.4 1.5 2 1 3.8 2.3 1.8 1.3 3.6 2.8 1.7 1.5 3.4 3 1.1 1.1 2.3 2.2 1.2 1.1 2.5 2.2 1.3 1.1 2.6 2 1.4 0.9 2.8 1.4 1.6 0.7 3.2 0.7 1.7 0 3.1-0.6 1.4-0.6 2.5-1.7 1.1-1.2 1.5-3 0.2-0.9 0-1.8 1 0.2 2.2 0.4v2.4q0 0.1 0 0.2 0.1 0.2 0.1 0.3 0.3 0.4 1 1 0.7 0.6 1.4 1.2 0.5 0.5 1 0.9 0.4 0.4 0.6 0.4 0.4 0.2 1 0c0.3-0.1 0.6-0.5 0.5-0.5z"/><path class="c" d="m48.9 88q0 0 0 0z"/><path class="c" d="m70.5 41.4q-0.2 0.1-0.4 0.1-0.1 0.1-0.2 0.1c-0.1 0-0.2-0.1-0.3-0.1q-0.2 0-0.4-0.2-0.1-0.1-0.1-0.2-0.1-0.1-0.1-0.1 0 0-0.1-0.1 0-0.1 0-0.1 0-0.1 0-0.2 0 0 0-0.1 0-0.1 0-0.1 0-0.2 0-0.3 0.1-0.2 0.2-0.4 0.1-0.2 0.1-0.2 0.1-0.1 0.1-0.1 0 0 0-0.1v-15.1-4.3h-4.3v18.1q0 0.1 0 0.3 0.1 0.2 0.1 0.2 0.3 0.4 1 1 0.7 0.6 1.4 1.2 0.5 0.5 0.9 0.9 0.4 0.4 0.7 0.4 0.4 0.2 0.9 0 0.6-0.2 0.6-0.5c0-0.3-0.1-0.1-0.1-0.1zm16.3-32.6c-0.8-1.9-2-3.1-2.6-3.7q-1.6-1.5-3.8-2.4-2.1-0.9-4.6-0.9c-1.6 0-3.2 0.3-4.7 1q-2.2 0.9-3.9 2.5-1.6 1.7-2.6 3.9-0.9 2.2-0.9 4.6c0 1.7 0.1 2.2 0.4 3.3q0.5 1.6 1.3 2.9h3.7q-0.5-0.9-0.7-1.9-0.3-1-0.3-2.1 0-1.8 0.7-3.4 0.7-1.6 1.9-2.7 1.2-1.2 2.7-1.9 1.6-0.7 3.5-0.7c1.2 0 2.3 0.3 3.5 0.7q1.7 0.6 3.2 1.7 1.4 1.1 2.3 2.6 1 1.5 1.1 3.2v0.5q0 0.7-0.1 1.3c0 0 0.8-2.5 0.6-5.3 0-0.8-0.1-1.9-0.7-3.3zm26.1 0c-0.8-1.8-2.1-3-2.7-3.6q-1.6-1.5-3.8-2.4-2.1-0.9-4.6-0.9c-1.6 0-3.2 0.3-4.7 0.9q-2.2 1-3.8 2.6-1.7 1.7-2.6 3.9-1 2.1-1 4.6c0 1.7 0.1 2.2 0.5 3.3q0.4 1.6 1.2 2.9h3.7q-0.4-0.9-0.7-1.9-0.3-1-0.3-2.1 0-1.8 0.7-3.4 0.7-1.6 1.9-2.7 1.2-1.2 2.8-1.9 1.6-0.7 3.4-0.7c1.2 0 2.3 0.2 3.5 0.7q1.8 0.6 3.2 1.7 1.4 1.1 2.4 2.6 0.9 1.5 1 3.2v0.5q0 0.7-0.1 1.3c0 0 0.8-2.5 0.7-5.3-0.1-0.8-0.2-2-0.7-3.3z"/><path class="d" d="m59.2 61.7q0 0 0 0zm24.5-35.2v5.1q0 0 0 0v-5.1q0 0 0 0zm-24.5 35.2q0 0 0.1 0h-0.1zm0.2 0m22.6-41.7q0.1 0.1 0.1 0.1 0.1 0.1 0.2 0.2 0 0 0.1 0v-0.3zm-0.1 0q0.1 0.1 0.1 0.1 0 0-0.1-0.1z"/><path class="c" d="m83.7 26.5v5.1q-1.1-0.1-2.3 0-1.2 0.1-2.2 0.4-1 0.4-1.9 1.1-0.9 0.7-1.4 1.8-0.5 1-0.6 2.1-0.1 1 0 2 0.2 1 0.5 2 0.4 0.9 1 1.8 0.1 0.2 0.2 0.3 0.1 0.2 0.2 0.3 0 0.1 0 0.2 0.1 0 0.1 0.1 0.7 1.1 1.5 2.1 0.3 0.4 0.7 0.9h-0.4q-0.4-0.4-0.8-0.9-0.6-0.6-1.3-1.3l-0.1-0.2q-1.6-1.7-3-3.4-1.4-1.9-2.3-3.8-0.4-1.2-0.5-2.3-0.1-1.2 0.2-2.3 0.2-1.1 0.7-2.1 0.5-1 1.2-1.9 0.7-0.8 1.8-1.3 1.2-0.6 2.6-0.9 1.5-0.2 3.1-0.2 1.5 0.1 3 0.5z"/><path class="c" d="m114.7 69.2q0 0 0 0z"/><path class="c" d="m83.7 26.5v5.1q0 0 0 0v-5.1q0 0 0 0z"/><path class="c" d="m90.3 20v4.3 13.9q0 0 0.1 0.2 0 0.2 0.1 0.3 0.3 0.3 1 0.9 0.6 0.7 1.4 1.3 0.5 0.4 0.9 0.8 0.4 0.4 0.6 0.5 0.4 0.1 1 0 0.5-0.2 0.5-0.6c0-0.2 0-0.1-0.1 0q-0.1 0-0.3 0.1-0.1 0-0.3 0c-0.1 0-0.2 0-0.3 0q-0.1-0.1-0.3-0.3-0.1 0-0.2-0.1 0-0.1 0-0.1-0.1-0.1-0.1-0.1 0-0.1 0-0.2 0 0-0.1-0.1 0-0.1 0-0.1 0-0.1 0-0.2 0-0.2 0.1-0.3 0-0.1 0.1-0.3 0.2-0.2 0.2-0.2 0-0.1 0-0.1 0 0 0-0.1v-15.1h1.8v-4.4h-6.1z"/><path class="c" d="m95.9 23q-0.1 0.5-0.1 0.9 0 0.2 0.1 0.5h0.6v-2.7q-0.5 0.6-0.6 1.3z"/><path class="c" d="m113.4 20h0.3zm0.8 0h-0.2 0.2z"/><path class="c" d="m114 20h-0.3 0.3zm-3.3 12.1q-1.3 1.3-2.9 2.3-0.1 0.1-0.2 0.1-0.2 0.2-0.4 0.3-0.7 0.4-1.4 0.6-0.6 0.3-1.4 0.5-1.5 0.3-3-0.1 0-0.1 0-0.2 0-0.1 0-0.1 0-0.6 0.5-1 0.2-0.1 0.5-0.3 0.2-0.1 0.4-0.2 0.3-0.2 0.6-0.3 0.2-0.1 0.5-0.2 1-0.5 1.9-1 0.9-0.5 1.6-1.3 0.4-0.4 0.6-0.9 0.2-0.5 0.4-1.1 0.1-0.4 0.2-0.9 0.1-0.4 0-0.8 0-0.5-0.1-1-0.1-0.5-0.2-0.9-0.3-0.7-0.8-1.3-0.5-0.6-1.1-1.1-1.6-1.4-3.3-2.5-0.3-0.1-0.6-0.3-0.4-0.1-0.7-0.3-0.4-0.1-0.7-0.1-0.4-0.1-0.7-0.2-0.4 0-0.7 0.1-0.3 0-0.7 0.1-1.1 0.3-2 1.1-0.3 0.2-0.5 0.6v2.7h-0.6q0 0.2 0.1 0.4 0.3 0.6 0.8 1.1 0.5 0.4 1 0.8 0.9 0.9 1.9 1.5 0.2 0.1 0.6 0.3 0.3 0.2 0.6 0.3 0.3 0.2 0.8 0.2-0.6 0.3-1.1 0.6-0.5 0.2-1 0.5-0.3 0.1-0.6 0.2-0.2 0.1-0.5 0.3-0.3 0.1-0.5 0.2-0.3 0.1-0.5 0.3-0.5 0.5-0.5 1.1c0 0.4 0 0.6 0.2 0.9q0.1 0.4 0.4 0.7 0.2 0.3 0.4 0.5 0.2 0.3 0.4 0.5 0.5 0.5 1.1 1 0.5 0.4 1 0.9 1.5 1 3 1.8 1.5 0.9 3.3 1 1.2 0.1 2.3-0.2 0 0 0.1-0.1 0.2 0 0.5-0.1 0.8-0.3 1.5-0.7 0.2-0.1 0.4-0.2 0 0 0 0v-6.6q0 0 0.1 0v-0.3q-0.2 0.2-0.4 0.3-0.2 0.3-0.6 0.6zm-9-7.9q0.8-0.6 1.8-0.9 0.2 0 0.4-0.1 0.1 0 0.3 0 0.1 0.4 0.1 0.9 0 0.4 0 0.8-0.1 0.4-0.2 0.8 0 0.1 0 0.1 0 0 0 0.1-0.2-0.2-0.4-0.3-0.2-0.2-0.4-0.3-0.8-0.7-1.6-1.1z"/><path class="c" d="m115.5 40.2q0 0.2 0 0.3 0 0.2 0 0.3 0 0.1 0.1 0.3l0.1 0.2q0 0 0.1 0.1 0 0 0 0 0.1 0.1 0.2 0.2 0.1 0.1 0.2 0.1 0.3 0 0.3 0 0.2 0 0.3 0 0.2-0.1 0.3-0.1 0.1-0.1 0.1 0 0 0.4-0.5 0.6-0.4 0.1-0.7 0.1-0.1 0-0.3-0.1-0.2-0.1-0.7-0.5 0 0 0-0.1-0.1 0-0.1 0 0 0-0.1-0.1-0.2-0.2-0.4-0.4 0 0-0.1 0-0.1-0.1-0.2-0.2-0.3-0.3-0.7-0.6 0-0.1-0.1-0.2-0.1-0.1-0.3-0.2-0.1-0.1-0.3-0.3-0.1-0.1-0.2-0.2-0.5-0.4-0.8-0.7 0 0 0-0.1v-0.5q0 0-0.1 0.1v-6.6q0 0 0.1 0v-0.4q0 0 0-0.1v-6.8h-2.8v-4.3h4.6 0.8 3.7v4.3h-1.9-0.1v15.2q-0.1 0-0.1 0.1 0 0 0 0 0 0.1-0.1 0.2 0 0-0.1 0.1 0 0.1-0.1 0.3z"/><path class="c" d="m111.6 38.2q0-0.1 0.1-0.1v0.5q-0.1-0.1-0.1-0.2 0-0.2 0-0.2z"/><path fill-rule="evenodd" class="c" d="m116 24.3h0.9-0.9z"/><path class="c" d="m89.2 41.7q0 0.3-0.5 0.5-0.3 0.1-0.6 0.1-0.2 0-0.3-0.1-0.3 0-0.7-0.4-0.3-0.3-0.7-0.7-0.1-0.1-0.2-0.1-0.5-0.5-1.1-1-0.1-0.2-0.3-0.3-0.1-0.1-0.2-0.2-0.5-0.5-0.8-0.7 0-0.1 0-0.1-0.1-0.1-0.1-0.2 0-0.2 0-0.3v-6.6q0 0 0 0v-5q0 0 0 0v-2.2h-1.4v-4.3h6.7v4.3h-1v15.1q0 0.1 0 0.1 0 0 0 0.1-0.1 0.1-0.1 0.1-0.1 0.1-0.1 0.2-0.1 0.1-0.1 0.3-0.1 0.2-0.1 0.3 0 0.2 0 0.3 0 0 0.1 0.2l0.1 0.2q0.1 0.1 0.1 0.1 0 0.1 0.1 0.1 0.1 0.1 0.1 0.2 0.1 0 0.2 0 0.3 0.1 0.3 0.1 0.2 0 0.3 0 0.2-0.1 0.3-0.1 0.1-0.1 0.1 0z"/><path class="a" d="m114.9 41.7q0-0.1-0.1-0.1h0.1z"/><path class="e" d="m114.2 39.9l1 1.6h-0.4q-0.2-0.2-0.4-0.4h0.2l-0.1-0.1h0.1l-0.4-0.7-0.3-0.4 0.3-0.4 0.4-0.8h-0.1l0.1-0.1h-0.2l0.2-0.4h0.6l-1 1.7z"/><path class="e" d="m113.6 39.9l-0.2 0.4q-0.1-0.1-0.2-0.2l0.2-0.2-1-1.7h0.6l0.2 0.4h-0.2l0.1 0.1h-0.1l0.4 0.8 0.2 0.4z"/><path fill-rule="evenodd" class="e" d="m115.2 37l-0.3 0.4v0.1l-0.4-0.5h0.7z"/><path fill-rule="evenodd" class="e" d="m115.8 36.6l-0.9 1.6h-0.3l0.6-0.9 0.4-0.7-0.4-0.7-0.6-1h0.3l0.9 1.6v0.1z"/><path fill-rule="evenodd" class="e" d="m114.1 37.6h-0.6l0.2-0.5 0.1 0.1v-0.1l0.3 0.5z"/><path fill-rule="evenodd" class="e" d="m114.6 36.6l-0.1 0.1-0.4 0.7-0.2-0.2 0.4-0.6v-0.1l-0.4-0.6 0.2-0.2 0.4 0.7 0.1 0.2z"/><path fill-rule="evenodd" class="e" d="m113 37l-0.3 0.5-0.1-0.1-0.2-0.4h0.6z"/><path fill-rule="evenodd" class="e" d="m113.2 36.6l0.4 0.6-0.1 0.2-0.5-0.7-0.1-0.1 0.1-0.2 0.5-0.7 0.1 0.2-0.4 0.6v0.1z"/><path fill-rule="evenodd" class="e" d="m115.2 36.2h-0.7l0.4-0.5v0.1l0.3 0.4z"/><path fill-rule="evenodd" class="e" d="m114.1 35.5l-0.3 0.5v-0.1l-0.1 0.1-0.2-0.5h0.6z"/><path fill-rule="evenodd" class="a" d="m113.4 33.7l-0.4 0.7h0.1l-0.1 0.1h0.2l-0.2 0.4h-0.6l1-1.7-1-1.6h0.6l0.2 0.4h-0.2l0.1 0.1h-0.1l0.4 0.7 0.2 0.4-0.2 0.5z"/><path fill-rule="evenodd" class="f" d="m113 36.2h-0.6l0.2-0.4 0.1-0.1 0.3 0.5z"/><path fill-rule="evenodd" class="e" d="m114.6 29.9l-0.1 0.2-0.4 0.7-0.2-0.2 0.4-0.6v-0.1l-0.4-0.6 0.2-0.2 0.4 0.7 0.1 0.1z"/><path fill-rule="evenodd" class="a" d="m113.2 30l0.4 0.6-0.1 0.2-0.5-0.7-0.1-0.2 0.1-0.1 0.5-0.7 0.1 0.2-0.4 0.6v0.1z"/><path fill-rule="evenodd" class="e" d="m113 30.3l-0.3 0.6-0.1-0.2-0.2-0.4h0.6z"/><path fill-rule="evenodd" class="e" d="m115.2 29.5h-0.7l0.4-0.5v0.2l0.3 0.3z"/><path fill-rule="evenodd" class="e" d="m113.6 26.6l-0.2 0.4-0.4 0.7h0.1l-0.1 0.2h0.2l-0.2 0.4h-0.6l1-1.7-1-1.6h0.6l0.2 0.4h-0.2l0.1 0.1h-0.1l0.4 0.7 0.2 0.4z"/><path fill-rule="evenodd" class="e" d="m113 29.5h-0.6l0.2-0.3 0.1-0.2 0.3 0.5z"/><path fill-rule="evenodd" class="e" d="m114.1 28.9l-0.3 0.5v-0.1l-0.1 0.1-0.2-0.5h0.6z"/><path fill-rule="evenodd" class="e" d="m115.2 23.7l-0.3 0.4v0.1l-0.4-0.5h0.7z"/><path fill-rule="evenodd" class="e" d="m114.2 26.6l0.9 1.7h-0.5l-0.2-0.4h0.2l-0.1-0.2h0.1l-0.4-0.7-0.3-0.4 0.3-0.4 0.4-0.7h-0.1l0.1-0.1h-0.2l0.2-0.4h0.5l-0.9 1.6z"/><path fill-rule="evenodd" class="e" d="m114.6 23.3l-0.1 0.2-0.4 0.7-0.2-0.3 0.4-0.6-0.4-0.6 0.2-0.3 0.4 0.8 0.1 0.1z"/><path fill-rule="evenodd" class="e" d="m114.1 24.3h-0.6l0.2-0.4 0.1 0.1v-0.1l0.3 0.4z"/><path fill-rule="evenodd" class="e" d="m113 23.7l-0.3 0.5-0.1-0.1-0.2-0.4h0.6z"/><path fill-rule="evenodd" class="e" d="m115.2 22.9h-0.7l0.4-0.5v0.1l0.3 0.4z"/><path fill-rule="evenodd" class="a" d="m115.8 23.3l-0.9 1.6h-0.3l0.6-0.9 0.4-0.7-0.4-0.7-0.6-0.9h0.3l0.9 1.6z"/><path fill-rule="evenodd" class="e" d="m112.4 24l0.5 0.9h-0.2l-1-1.6 1-1.6h0.2l-0.5 0.9-0.4 0.7 0.4 0.7z"/><path fill-rule="evenodd" class="a" d="m113.2 23.3l0.4 0.6-0.1 0.3-0.5-0.7-0.1-0.2 0.1-0.1 0.5-0.8 0.1 0.3-0.4 0.6z"/><path fill-rule="evenodd" class="e" d="m113 22.9h-0.6l0.2-0.4 0.1-0.1 0.3 0.5z"/><path fill-rule="evenodd" class="a" d="m114.1 22.3l-0.3 0.4v-0.1l-0.1 0.1-0.2-0.4h0.6z"/><path fill-rule="evenodd" class="f" d="m112.4 37.3l0.5 0.9h-0.2l-1-1.6 1-1.7h0.2l-0.5 1-0.4 0.7 0.4 0.7z"/><path fill-rule="evenodd" class="f" d="m114.2 33.2l0.9 1.7h-0.5l-0.2-0.4h0.2l-0.1-0.1h0.1l-0.4-0.7-0.3-0.5 0.3-0.4 0.4-0.7h-0.1l0.1-0.1h-0.2l0.2-0.4h0.5l-0.9 1.6z"/><path fill-rule="evenodd" class="f" d="m115.2 30.3l-0.3 0.4v0.2l-0.4-0.6h0.7z"/><path fill-rule="evenodd" class="f" d="m114.1 31h-0.6l0.2-0.5 0.1 0.1v-0.1l0.3 0.5z"/><path fill-rule="evenodd" class="f" d="m112.4 30.6l0.5 1h-0.2l-1-1.7 1-1.6h0.2l-0.5 0.9-0.4 0.7 0.4 0.7z"/><path fill-rule="evenodd" class="f" d="m115.8 29.9v0.1l-0.9 1.6h-0.3l0.6-1 0.4-0.7-0.4-0.7-0.6-0.9h0.3l0.9 1.6z"/><path class="f" d="m115.1 21.6h-0.5l-0.2-0.3h0.1v-0.2h0.1l-0.5-0.7q-0.1-0.2-0.2-0.4h0.3q0.4 0.8 0.9 1.6z"/><path class="f" d="m113.4 20.4l-0.4 0.7h0.1l-0.1 0.2h0.2l-0.2 0.4h-0.6q0.5-0.9 1-1.7h0.2q-0.1 0.2-0.2 0.4z"/><path fill-rule="evenodd" class="a" d="m63.1 26.5v0.1h-4.3v-0.1z"/><path fill-rule="evenodd" class="a" d="m63.1 26.8v0.1h-4.3v-0.1z"/><path fill-rule="evenodd" class="a" d="m63.1 27.1v0.2h-4.3v-0.2z"/><path fill-rule="evenodd" class="f" d="m59 25.8q-0.2 0-0.2-0.2 0-0.1 0.2-0.1 0.1 0 0.1 0.1 0 0.2-0.1 0.2z"/><path fill-rule="evenodd" class="f" d="m59.4 25.8q-0.1 0-0.2-0.2 0.1-0.1 0.2-0.1 0.1 0 0.1 0.1 0 0.2-0.1 0.2z"/><path fill-rule="evenodd" class="f" d="m59.8 25.8q-0.1 0-0.1-0.2 0-0.1 0.1-0.1 0.1 0 0.2 0.1-0.1 0.2-0.2 0.2z"/><path fill-rule="evenodd" class="f" d="m60.2 25.8q-0.1 0-0.1-0.2 0-0.1 0.1-0.1 0.2 0 0.2 0.1 0 0.2-0.2 0.2z"/><path fill-rule="evenodd" class="f" d="m60.6 25.8q-0.1 0-0.1-0.2 0-0.1 0.1-0.1 0.1 0 0.2 0.1-0.1 0.2-0.2 0.2z"/><path fill-rule="evenodd" class="f" d="m61 25.8q-0.1 0-0.1-0.2 0-0.1 0.1-0.1 0.2 0 0.2 0.1 0 0.2-0.2 0.2z"/><path fill-rule="evenodd" class="f" d="m61.8 25.8q-0.1 0-0.1-0.2 0-0.1 0.1-0.1 0.1 0 0.1 0.1 0 0.2-0.1 0.2z"/><path fill-rule="evenodd" class="f" d="m62.2 25.8q-0.2 0-0.2-0.2 0-0.1 0.2-0.1 0.1 0 0.1 0.1 0 0.2-0.1 0.2z"/><path fill-rule="evenodd" class="f" d="m62.5 25.8q-0.1 0-0.1-0.2 0-0.1 0.1-0.1 0.1 0 0.1 0.1 0 0.2-0.1 0.2z"/><path fill-rule="evenodd" class="f" d="m62.9 25.8q-0.1 0-0.1-0.2 0-0.1 0.1-0.1 0.1 0 0.1 0.1 0 0.2-0.1 0.2z"/><path fill-rule="evenodd" class="f" d="m61.4 25.8q-0.1 0-0.1-0.2 0-0.1 0.1-0.1 0.1 0 0.1 0.1 0 0.2-0.1 0.2z"/><path fill-rule="evenodd" class="f" d="m88 24.3v1.6l-0.8-0.8 0.8-0.8z"/><path fill-rule="evenodd" class="f" d="m88 25.9v1.5l-0.8-0.8 0.8-0.7z"/><path fill-rule="evenodd" class="f" d="m88 27.4v1.5l-0.8-0.7 0.8-0.8z"/><path fill-rule="evenodd" class="f" d="m88 28.9v1.5l-0.8-0.7 0.8-0.8z"/><path fill-rule="evenodd" class="f" d="m88 30.5v1.5l-0.8-0.8 0.8-0.7z"/><path fill-rule="evenodd" class="f" d="m88 32v1.5l-0.8-0.8 0.8-0.7z"/><path class="f" d="m72.7 29.1q0.2-0.3 0.4-0.5 0.2-0.3 0.3-0.3 0.2-0.2 0.3-0.3 0 0.5 0.1 1-0.6 0.1-1.1 0.1z"/><path class="f" d="m73.7 28q0.1-0.1 0.3-0.3 0.5-0.4 1-0.6-0.1 0.6-0.2 1.1z"/><path class="f" d="m75 27.1q0.3-0.1 0.6-0.2 0.4-0.2 0.8-0.3-0.2 0.5-0.4 1-0.5-0.3-1-0.5z"/><path class="f" d="m76.4 26.6q0.4-0.1 0.8-0.2 0.4-0.1 0.7-0.2-0.3 0.5-0.5 1-0.5-0.3-1-0.6z"/><path class="f" d="m77.9 26.2q0.2 0 0.4 0c0.2 0 0.5-0.1 0.6-0.1q0.2 0 0.6 0-0.4 0.4-0.7 0.8-0.4-0.3-0.9-0.7z"/><path class="f" d="m79.5 26.1q0.1 0 0.3 0c0.2 0 0.4 0 0.6 0q0.3 0 0.4 0 0.1 0 0.2 0-0.4 0.4-0.8 0.7l-0.7-0.7z"/><path class="b" d="m72.9 27c0 0 0.6-0.8 1.6-1.4 2.4-1.4 5.2-0.7 5.9-0.5 1 0.2 1.9 0.6 2 0.7 0.7 0.3 1.3 0.7 1.3 0.7 0 0-0.3-0.1-0.6-0.3-0.5-0.2-1.6-0.7-2.8-0.9-1.5-0.3-2.6-0.2-2.9-0.1-0.7 0-1.6 0.1-2.7 0.6-1.1 0.6-1.8 1.3-1.8 1.2z"/><path class="b" d="m72.9 25.9c0 0 0.7-0.7 1.7-1.2 2.5-1.2 5.3-0.2 6 0 0.9 0.3 1.7 0.8 1.9 0.9 0.6 0.4 1.2 0.9 1.2 0.9 0 0-0.3-0.2-0.6-0.4-0.5-0.3-1.5-0.8-2.7-1.2-1.4-0.4-2.6-0.4-2.9-0.4-0.6 0-1.6 0-2.7 0.4-1.1 0.4-1.9 1.1-1.9 1z"/><path class="a" d="m73.3 25.6q0 0.2-0.1 0.3-0.2 0.2-0.4 0.3-0.1 0-0.2-0.1c-0.1 0-0.1-0.1-0.1-0.2 0-0.2 0.1-0.3 0.3-0.4q0.2 0 0.5 0.1z"/><path class="a" d="m73.2 26.7q-0.1 0.2-0.2 0.4-0.2 0.2-0.4 0.3-0.2 0.1-0.3 0c-0.1-0.1-0.2-0.2-0.1-0.3 0-0.2 0.2-0.4 0.3-0.4 0.2-0.1 0.4-0.1 0.7 0z"/><path class="b" d="m112.8 19.3h5.9v4.1h-0.2q0-1.9 0-3.9-2.8-0.1-5.7-0.2z"/><path class="a" d="m118.6 23.2q0.2 0.2 0.3 0.4 0.2 0.2 0.1 0.5 0 0.1-0.2 0.2-0.1 0.1-0.3 0c-0.2-0.1-0.2-0.3-0.2-0.5q0-0.3 0.3-0.6z"/><path fill-rule="evenodd" class="a" d="m88 35.7v0.1h-4.3v-0.1z"/><path fill-rule="evenodd" class="a" d="m88 36v0.1h-4.3v-0.1z"/><path fill-rule="evenodd" class="a" d="m88 36.3v0.2h-4.3v-0.2z"/><path fill-rule="evenodd" class="f" d="m83.8 36.8q-0.1 0-0.1-0.1 0-0.1 0.1-0.1 0.1 0 0.2 0.1-0.1 0.1-0.2 0.1z"/><path fill-rule="evenodd" class="f" d="m84.2 36.8q-0.1 0-0.1-0.1 0-0.1 0.1-0.1 0.2 0 0.2 0.1 0 0.1-0.2 0.1z"/><path fill-rule="evenodd" class="f" d="m84.7 36.8q-0.1 0-0.1-0.1 0-0.1 0.1-0.1 0.1 0 0.1 0.1 0 0.1-0.1 0.1z"/><path fill-rule="evenodd" class="f" d="m85.1 36.8q-0.1 0-0.1-0.1 0-0.1 0.1-0.1 0.1 0 0.1 0.1 0 0.1-0.1 0.1z"/><path fill-rule="evenodd" class="f" d="m85.5 36.8q-0.1 0-0.1-0.1 0-0.1 0.1-0.1 0.1 0 0.1 0.1 0 0.1-0.1 0.1z"/><path fill-rule="evenodd" class="f" d="m85.9 36.8q-0.1 0-0.1-0.1 0-0.1 0.1-0.1 0.1 0 0.1 0.1 0 0.1-0.1 0.1z"/><path fill-rule="evenodd" class="f" d="m86.6 36.8q-0.1 0-0.1-0.1 0-0.1 0.1-0.1 0.2 0 0.2 0.1 0 0.1-0.2 0.1z"/><path fill-rule="evenodd" class="f" d="m87 36.8q-0.1 0-0.1-0.1 0-0.1 0.1-0.1 0.1 0 0.2 0.1-0.1 0.1-0.2 0.1z"/><path fill-rule="evenodd" class="f" d="m87.4 36.8q-0.1 0-0.2-0.1 0.1-0.1 0.2-0.1 0.1 0 0.1 0.1 0 0.1-0.1 0.1z"/><path fill-rule="evenodd" class="f" d="m87.8 36.8q-0.2 0-0.2-0.1 0-0.1 0.2-0.1 0.1 0 0.1 0.1 0 0.1-0.1 0.1z"/><path fill-rule="evenodd" class="f" d="m86.3 36.8q-0.2 0-0.2-0.1 0-0.1 0.2-0.1 0.1 0 0.1 0.1 0 0.1-0.1 0.1z"/><path fill-rule="evenodd" class="a" d="m69.3 35.1v0.1h-4.3v-0.1z"/><path fill-rule="evenodd" class="a" d="m69.3 35.4v0.2h-4.3v-0.2z"/><path fill-rule="evenodd" class="a" d="m69.3 35.7v0.2h-4.3v-0.2z"/><path fill-rule="evenodd" class="f" d="m65.1 36.2q-0.1 0-0.1-0.1 0-0.1 0.1-0.1 0.1 0 0.1 0.1 0 0.1-0.1 0.1z"/><path fill-rule="evenodd" class="f" d="m65.5 36.2q-0.1 0-0.1-0.1 0-0.1 0.1-0.1 0.1 0 0.2 0.1-0.1 0.1-0.2 0.1z"/><path fill-rule="evenodd" class="f" d="m66 36.2q-0.1 0-0.2-0.1 0.1-0.1 0.2-0.1 0.1 0 0.1 0.1 0 0.1-0.1 0.1z"/><path fill-rule="evenodd" class="f" d="m66.4 36.2q-0.1 0-0.1-0.1 0-0.1 0.1-0.1 0.1 0 0.1 0.1 0 0.1-0.1 0.1z"/><path fill-rule="evenodd" class="f" d="m66.8 36.2q-0.1 0-0.1-0.1 0-0.1 0.1-0.1 0.1 0 0.1 0.1 0 0.1-0.1 0.1z"/><path fill-rule="evenodd" class="f" d="m67.2 36.2q-0.1 0-0.1-0.1 0-0.1 0.1-0.1 0.1 0 0.1 0.1 0 0.1-0.1 0.1z"/><path fill-rule="evenodd" class="f" d="m67.9 36.2q-0.1 0-0.1-0.1 0-0.1 0.1-0.1 0.2 0 0.2 0.1 0 0.1-0.2 0.1z"/><path fill-rule="evenodd" class="f" d="m68.3 36.2q-0.1 0-0.1-0.1 0-0.1 0.1-0.1 0.1 0 0.1 0.1 0 0.1-0.1 0.1z"/><path fill-rule="evenodd" class="f" d="m68.7 36.2q-0.2 0-0.2-0.1 0-0.1 0.2-0.1 0.1 0 0.1 0.1 0 0.1-0.1 0.1z"/><path fill-rule="evenodd" class="f" d="m69 36.2q-0.1 0-0.1-0.1 0-0.1 0.1-0.1 0.2 0 0.2 0.1 0 0.1-0.2 0.1z"/><path fill-rule="evenodd" class="f" d="m67.6 36.2q-0.2 0-0.2-0.1 0-0.1 0.2-0.1 0.1 0 0.1 0.1 0 0.1-0.1 0.1z"/><path fill-rule="evenodd" class="a" d="m94.7 35.7v0.2h-4.4v-0.2z"/><path fill-rule="evenodd" class="a" d="m94.7 36.1v0.1h-4.4v-0.1z"/><path fill-rule="evenodd" class="a" d="m94.7 36.4v0.1h-4.4v-0.1z"/><path fill-rule="evenodd" class="f" d="m90.5 36.9q-0.2 0-0.2-0.1 0-0.2 0.2-0.2 0.1 0 0.1 0.2 0 0.1-0.1 0.1z"/><path fill-rule="evenodd" class="f" d="m90.9 36.9q-0.1 0-0.1-0.1 0-0.2 0.1-0.2 0.1 0 0.1 0.2 0 0.1-0.1 0.1z"/><path fill-rule="evenodd" class="f" d="m91.3 36.9q-0.1 0-0.1-0.1 0-0.2 0.1-0.2 0.1 0 0.2 0.2-0.1 0.1-0.2 0.1z"/><path fill-rule="evenodd" class="f" d="m91.7 36.9q-0.1 0-0.1-0.1 0-0.2 0.1-0.2 0.2 0 0.2 0.2 0 0.1-0.2 0.1z"/><path fill-rule="evenodd" class="f" d="m92.1 36.9q-0.1 0-0.1-0.1 0-0.2 0.1-0.2 0.2 0 0.2 0.2 0 0.1-0.2 0.1z"/><path fill-rule="evenodd" class="f" d="m92.5 36.9q-0.1 0-0.1-0.1 0-0.2 0.1-0.2 0.2 0 0.2 0.2 0 0.1-0.2 0.1z"/><path fill-rule="evenodd" class="f" d="m93.3 36.9q-0.1 0-0.2-0.1 0.1-0.2 0.2-0.2 0.1 0 0.1 0.2 0 0.1-0.1 0.1z"/><path fill-rule="evenodd" class="f" d="m93.7 36.9q-0.2 0-0.2-0.1 0-0.2 0.2-0.2 0.1 0 0.1 0.2 0 0.1-0.1 0.1z"/><path fill-rule="evenodd" class="f" d="m94 36.9q-0.1 0-0.1-0.1 0-0.2 0.1-0.2 0.1 0 0.1 0.2 0 0.1-0.1 0.1z"/><path fill-rule="evenodd" class="f" d="m94.4 36.9q-0.1 0-0.1-0.1 0-0.2 0.1-0.2 0.1 0 0.1 0.2 0 0.1-0.1 0.1z"/><path fill-rule="evenodd" class="f" d="m92.9 36.9q-0.1 0-0.1-0.1 0-0.2 0.1-0.2 0.1 0 0.1 0.2 0 0.1-0.1 0.1z"/><path class="c" d="m115.9 47.8h-0.2q0.1 0 0.2 0z"/></svg>